<svg width="309" height="34" viewBox="0 0 309 34" fill="none" xmlns="http://www.w3.org/2000/svg">
<rect y="28.3105" width="309" height="5.21918" rx="2.60959" fill="#F1F1F1"/>
<rect y="28" width="67.2435" height="5.52975" rx="2.76488" fill="#404898"/>
<path d="M4.79596 3.7607C4.76601 3.49492 4.64248 3.28904 4.42537 3.14305C4.20826 2.99519 3.93499 2.92126 3.60558 2.92126C3.36975 2.92126 3.16574 2.95869 2.99355 3.03356C2.82136 3.10655 2.68753 3.20762 2.59208 3.33676C2.4985 3.46404 2.45171 3.60909 2.45171 3.77193C2.45171 3.90856 2.48352 4.02647 2.54716 4.12567C2.61267 4.22487 2.69783 4.30816 2.80264 4.37553C2.90933 4.44104 3.0235 4.49626 3.14515 4.54118C3.26681 4.58422 3.38379 4.61979 3.49609 4.64786L4.05759 4.79385C4.24101 4.83877 4.42911 4.8996 4.62189 4.97634C4.81467 5.05307 4.99342 5.15414 5.15812 5.27955C5.32283 5.40495 5.45572 5.56029 5.55679 5.74559C5.65973 5.93088 5.7112 6.15267 5.7112 6.41096C5.7112 6.73663 5.62697 7.0258 5.45852 7.27848C5.29195 7.53115 5.04957 7.73048 4.73138 7.87647C4.41507 8.02246 4.03232 8.09545 3.58312 8.09545C3.15264 8.09545 2.78018 8.02714 2.46574 7.89051C2.1513 7.75388 1.90518 7.56016 1.72737 7.30936C1.54957 7.05668 1.4513 6.75722 1.43259 6.41096H2.30291C2.31975 6.61872 2.38713 6.79184 2.50505 6.93035C2.62483 7.06698 2.77737 7.16898 2.96267 7.23636C3.14983 7.30187 3.35478 7.33463 3.57751 7.33463C3.82269 7.33463 4.04074 7.29626 4.23165 7.21952C4.42443 7.14091 4.57604 7.03235 4.68646 6.89385C4.79689 6.75348 4.85211 6.58971 4.85211 6.40254C4.85211 6.23222 4.80344 6.09278 4.70612 5.98422C4.61066 5.87567 4.48058 5.78583 4.31588 5.71471C4.15304 5.64358 3.96868 5.58088 3.7628 5.5266L3.08339 5.34131C2.62296 5.21591 2.25799 5.03155 1.98847 4.78824C1.72082 4.54492 1.587 4.22299 1.587 3.82246C1.587 3.49118 1.67684 3.20201 1.85652 2.95495C2.0362 2.70789 2.27951 2.51604 2.58646 2.37941C2.89342 2.24091 3.23967 2.17166 3.62523 2.17166C4.01454 2.17166 4.35799 2.23997 4.65558 2.3766C4.95505 2.51324 5.19088 2.70134 5.36307 2.94091C5.53526 3.17861 5.6251 3.45187 5.63259 3.7607H4.79596ZM8.69345 3.6877V4.3615H6.33797V3.6877H8.69345ZM6.96965 2.65455H7.80909V6.73382C7.80909 6.89666 7.83342 7.01925 7.88209 7.1016C7.93075 7.18209 7.99345 7.2373 8.07019 7.26725C8.1488 7.29532 8.23396 7.30936 8.32567 7.30936C8.39305 7.30936 8.45201 7.30468 8.50254 7.29532C8.55308 7.28596 8.59238 7.27848 8.62046 7.27286L8.77206 7.96631C8.7234 7.98503 8.65414 8.00374 8.56431 8.02246C8.47447 8.04305 8.36217 8.05428 8.22741 8.05615C8.00655 8.05989 7.80067 8.02059 7.60976 7.93824C7.41885 7.85588 7.26444 7.72861 7.14652 7.55642C7.02861 7.38422 6.96965 7.16805 6.96965 6.90789V2.65455ZM11.4343 8.08703C11.0094 8.08703 10.6435 7.99626 10.3365 7.81471C10.0315 7.63128 9.79562 7.37393 9.62904 7.04265C9.46434 6.70949 9.38199 6.31925 9.38199 5.87193C9.38199 5.43021 9.46434 5.04091 9.62904 4.70401C9.79562 4.36711 10.0277 4.10414 10.3253 3.91511C10.6248 3.72607 10.9748 3.63155 11.3753 3.63155C11.6186 3.63155 11.8544 3.67179 12.0828 3.75227C12.3111 3.83275 12.5161 3.95909 12.6976 4.13128C12.8792 4.30348 13.0224 4.52714 13.1272 4.80227C13.232 5.07553 13.2844 5.40775 13.2844 5.79893V6.09652H9.85645V5.46765H12.4618C12.4618 5.24679 12.4169 5.0512 12.327 4.88088C12.2372 4.70869 12.1109 4.57299 11.948 4.4738C11.7871 4.3746 11.598 4.325 11.3809 4.325C11.1451 4.325 10.9392 4.38302 10.7633 4.49906C10.5892 4.61324 10.4544 4.76297 10.359 4.94826C10.2654 5.13168 10.2186 5.33102 10.2186 5.54626V6.03757C10.2186 6.3258 10.2692 6.57099 10.3702 6.77313C10.4732 6.97527 10.6163 7.12968 10.7998 7.23636C10.9832 7.34118 11.1975 7.39358 11.4427 7.39358C11.6018 7.39358 11.7468 7.37112 11.8778 7.3262C12.0089 7.27941 12.1221 7.21016 12.2175 7.11845C12.313 7.02674 12.386 6.9135 12.4365 6.77874L13.231 6.92193C13.1674 7.15588 13.0532 7.36083 12.8885 7.53676C12.7257 7.71083 12.5208 7.84652 12.2737 7.94385C12.0285 8.0393 11.7487 8.08703 11.4343 8.08703ZM14.2158 9.61711V3.6877H15.0356V4.38676H15.1057C15.1544 4.29693 15.2246 4.19305 15.3163 4.07513C15.408 3.95722 15.5353 3.85428 15.6981 3.76631C15.861 3.67647 16.0762 3.63155 16.3439 3.63155C16.692 3.63155 17.0027 3.71952 17.2759 3.89545C17.5492 4.07139 17.7635 4.325 17.9189 4.65628C18.0761 4.98757 18.1547 5.38623 18.1547 5.85227C18.1547 6.31832 18.077 6.71791 17.9217 7.05107C17.7663 7.38235 17.5529 7.63783 17.2816 7.81751C17.0102 7.99532 16.7004 8.08422 16.3523 8.08422C16.0902 8.08422 15.8759 8.04024 15.7094 7.95227C15.5447 7.8643 15.4155 7.76136 15.3219 7.64345C15.2283 7.52553 15.1563 7.42072 15.1057 7.32901H15.0552V9.61711H14.2158ZM15.0384 5.84385C15.0384 6.14706 15.0824 6.41283 15.1703 6.64118C15.2583 6.86952 15.3856 7.04826 15.5521 7.17741C15.7187 7.30468 15.9227 7.36832 16.1642 7.36832C16.415 7.36832 16.6246 7.30187 16.793 7.16898C16.9615 7.03422 17.0888 6.85174 17.1749 6.62152C17.2628 6.39131 17.3068 6.13209 17.3068 5.84385C17.3068 5.55936 17.2638 5.30388 17.1777 5.07741C17.0934 4.85094 16.9662 4.67219 16.7959 4.54118C16.6274 4.41016 16.4168 4.34465 16.1642 4.34465C15.9209 4.34465 15.715 4.40735 15.5465 4.53275C15.3799 4.65816 15.2536 4.83316 15.1675 5.05775C15.0814 5.28235 15.0384 5.54439 15.0384 5.84385ZM23.3577 2.25027V8H22.4873V3.12059H22.4536L21.078 4.01898V3.18797L22.5126 2.25027H23.3577Z" fill="#A7A7A7"/>
<path d="M136.046 3.7607C136.016 3.49492 135.892 3.28904 135.675 3.14305C135.458 2.99519 135.185 2.92126 134.856 2.92126C134.62 2.92126 134.416 2.95869 134.244 3.03356C134.071 3.10655 133.938 3.20762 133.842 3.33676C133.748 3.46404 133.702 3.60909 133.702 3.77193C133.702 3.90856 133.734 4.02647 133.797 4.12567C133.863 4.22487 133.948 4.30816 134.053 4.37553C134.159 4.44104 134.273 4.49626 134.395 4.54118C134.517 4.58422 134.634 4.61979 134.746 4.64786L135.308 4.79385C135.491 4.83877 135.679 4.8996 135.872 4.97634C136.065 5.05307 136.243 5.15414 136.408 5.27955C136.573 5.40495 136.706 5.56029 136.807 5.74559C136.91 5.93088 136.961 6.15267 136.961 6.41096C136.961 6.73663 136.877 7.0258 136.709 7.27848C136.542 7.53115 136.3 7.73048 135.981 7.87647C135.665 8.02246 135.282 8.09545 134.833 8.09545C134.403 8.09545 134.03 8.02714 133.716 7.89051C133.401 7.75388 133.155 7.56016 132.977 7.30936C132.8 7.05668 132.701 6.75722 132.683 6.41096H133.553C133.57 6.61872 133.637 6.79184 133.755 6.93035C133.875 7.06698 134.027 7.16898 134.213 7.23636C134.4 7.30187 134.605 7.33463 134.828 7.33463C135.073 7.33463 135.291 7.29626 135.482 7.21952C135.674 7.14091 135.826 7.03235 135.936 6.89385C136.047 6.75348 136.102 6.58971 136.102 6.40254C136.102 6.23222 136.053 6.09278 135.956 5.98422C135.861 5.87567 135.731 5.78583 135.566 5.71471C135.403 5.64358 135.219 5.58088 135.013 5.5266L134.333 5.34131C133.873 5.21591 133.508 5.03155 133.238 4.78824C132.971 4.54492 132.837 4.22299 132.837 3.82246C132.837 3.49118 132.927 3.20201 133.107 2.95495C133.286 2.70789 133.53 2.51604 133.836 2.37941C134.143 2.24091 134.49 2.17166 134.875 2.17166C135.265 2.17166 135.608 2.23997 135.906 2.3766C136.205 2.51324 136.441 2.70134 136.613 2.94091C136.785 3.17861 136.875 3.45187 136.883 3.7607H136.046ZM139.943 3.6877V4.3615H137.588V3.6877H139.943ZM138.22 2.65455H139.059V6.73382C139.059 6.89666 139.083 7.01925 139.132 7.1016C139.181 7.18209 139.243 7.2373 139.32 7.26725C139.399 7.29532 139.484 7.30936 139.576 7.30936C139.643 7.30936 139.702 7.30468 139.753 7.29532C139.803 7.28596 139.842 7.27848 139.87 7.27286L140.022 7.96631C139.973 7.98503 139.904 8.00374 139.814 8.02246C139.724 8.04305 139.612 8.05428 139.477 8.05615C139.257 8.05989 139.051 8.02059 138.86 7.93824C138.669 7.85588 138.514 7.72861 138.397 7.55642C138.279 7.38422 138.22 7.16805 138.22 6.90789V2.65455ZM142.684 8.08703C142.259 8.08703 141.893 7.99626 141.587 7.81471C141.281 7.63128 141.046 7.37393 140.879 7.04265C140.714 6.70949 140.632 6.31925 140.632 5.87193C140.632 5.43021 140.714 5.04091 140.879 4.70401C141.046 4.36711 141.278 4.10414 141.575 3.91511C141.875 3.72607 142.225 3.63155 142.625 3.63155C142.869 3.63155 143.104 3.67179 143.333 3.75227C143.561 3.83275 143.766 3.95909 143.948 4.13128C144.129 4.30348 144.272 4.52714 144.377 4.80227C144.482 5.07553 144.534 5.40775 144.534 5.79893V6.09652H141.106V5.46765H143.712C143.712 5.24679 143.667 5.0512 143.577 4.88088C143.487 4.70869 143.361 4.57299 143.198 4.4738C143.037 4.3746 142.848 4.325 142.631 4.325C142.395 4.325 142.189 4.38302 142.013 4.49906C141.839 4.61324 141.704 4.76297 141.609 4.94826C141.515 5.13168 141.469 5.33102 141.469 5.54626V6.03757C141.469 6.3258 141.519 6.57099 141.62 6.77313C141.723 6.97527 141.866 7.12968 142.05 7.23636C142.233 7.34118 142.447 7.39358 142.693 7.39358C142.852 7.39358 142.997 7.37112 143.128 7.3262C143.259 7.27941 143.372 7.21016 143.468 7.11845C143.563 7.02674 143.636 6.9135 143.687 6.77874L144.481 6.92193C144.417 7.15588 144.303 7.36083 144.139 7.53676C143.976 7.71083 143.771 7.84652 143.524 7.94385C143.279 8.0393 142.999 8.08703 142.684 8.08703ZM145.466 9.61711V3.6877H146.286V4.38676H146.356C146.404 4.29693 146.475 4.19305 146.566 4.07513C146.658 3.95722 146.785 3.85428 146.948 3.76631C147.111 3.67647 147.326 3.63155 147.594 3.63155C147.942 3.63155 148.253 3.71952 148.526 3.89545C148.799 4.07139 149.014 4.325 149.169 4.65628C149.326 4.98757 149.405 5.38623 149.405 5.85227C149.405 6.31832 149.327 6.71791 149.172 7.05107C149.016 7.38235 148.803 7.63783 148.532 7.81751C148.26 7.99532 147.95 8.08422 147.602 8.08422C147.34 8.08422 147.126 8.04024 146.959 7.95227C146.795 7.8643 146.666 7.76136 146.572 7.64345C146.478 7.52553 146.406 7.42072 146.356 7.32901H146.305V9.61711H145.466ZM146.288 5.84385C146.288 6.14706 146.332 6.41283 146.42 6.64118C146.508 6.86952 146.636 7.04826 146.802 7.17741C146.969 7.30468 147.173 7.36832 147.414 7.36832C147.665 7.36832 147.875 7.30187 148.043 7.16898C148.211 7.03422 148.339 6.85174 148.425 6.62152C148.513 6.39131 148.557 6.13209 148.557 5.84385C148.557 5.55936 148.514 5.30388 148.428 5.07741C148.343 4.85094 148.216 4.67219 148.046 4.54118C147.877 4.41016 147.667 4.34465 147.414 4.34465C147.171 4.34465 146.965 4.40735 146.797 4.53275C146.63 4.65816 146.504 4.83316 146.418 5.05775C146.331 5.28235 146.288 5.54439 146.288 5.84385ZM152.426 8V7.37112L154.372 5.35535C154.58 5.13636 154.751 4.94452 154.886 4.77981C155.022 4.61324 155.124 4.45508 155.192 4.30535C155.259 4.15562 155.293 3.99652 155.293 3.82808C155.293 3.63717 155.248 3.47246 155.158 3.33396C155.068 3.19358 154.945 3.08596 154.79 3.0111C154.635 2.93436 154.46 2.89599 154.265 2.89599C154.059 2.89599 153.88 2.9381 153.726 3.02233C153.573 3.10655 153.455 3.2254 153.372 3.37888C153.29 3.53235 153.249 3.71203 153.249 3.91791H152.421C152.421 3.56791 152.501 3.2619 152.662 2.99987C152.823 2.73783 153.044 2.53476 153.325 2.39064C153.605 2.24465 153.924 2.17166 154.282 2.17166C154.643 2.17166 154.961 2.24372 155.237 2.38783C155.514 2.53008 155.73 2.72473 155.885 2.97179C156.04 3.21698 156.118 3.49398 156.118 3.80281C156.118 4.01618 156.078 4.22487 155.997 4.42888C155.919 4.63289 155.781 4.86029 155.585 5.1111C155.388 5.36003 155.115 5.6623 154.765 6.01791L153.622 7.2139V7.25602H156.211V8H152.426Z" fill="#A7A7A7"/>
<path d="M256.922 3.7607C256.892 3.49492 256.769 3.28904 256.552 3.14305C256.335 2.99519 256.061 2.92126 255.732 2.92126C255.496 2.92126 255.292 2.95869 255.12 3.03356C254.948 3.10655 254.814 3.20762 254.719 3.33676C254.625 3.46404 254.578 3.60909 254.578 3.77193C254.578 3.90856 254.61 4.02647 254.674 4.12567C254.739 4.22487 254.824 4.30816 254.929 4.37553C255.036 4.44104 255.15 4.49626 255.272 4.54118C255.393 4.58422 255.51 4.61979 255.623 4.64786L256.184 4.79385C256.367 4.83877 256.556 4.8996 256.748 4.97634C256.941 5.05307 257.12 5.15414 257.285 5.27955C257.449 5.40495 257.582 5.56029 257.683 5.74559C257.786 5.93088 257.838 6.15267 257.838 6.41096C257.838 6.73663 257.753 7.0258 257.585 7.27848C257.418 7.53115 257.176 7.73048 256.858 7.87647C256.542 8.02246 256.159 8.09545 255.71 8.09545C255.279 8.09545 254.907 8.02714 254.592 7.89051C254.278 7.75388 254.032 7.56016 253.854 7.30936C253.676 7.05668 253.578 6.75722 253.559 6.41096H254.429C254.446 6.61872 254.514 6.79184 254.632 6.93035C254.751 7.06698 254.904 7.16898 255.089 7.23636C255.276 7.30187 255.481 7.33463 255.704 7.33463C255.949 7.33463 256.167 7.29626 256.358 7.21952C256.551 7.14091 256.703 7.03235 256.813 6.89385C256.923 6.75348 256.979 6.58971 256.979 6.40254C256.979 6.23222 256.93 6.09278 256.833 5.98422C256.737 5.87567 256.607 5.78583 256.442 5.71471C256.28 5.64358 256.095 5.58088 255.889 5.5266L255.21 5.34131C254.749 5.21591 254.384 5.03155 254.115 4.78824C253.847 4.54492 253.713 4.22299 253.713 3.82246C253.713 3.49118 253.803 3.20201 253.983 2.95495C254.163 2.70789 254.406 2.51604 254.713 2.37941C255.02 2.24091 255.366 2.17166 255.752 2.17166C256.141 2.17166 256.484 2.23997 256.782 2.3766C257.082 2.51324 257.317 2.70134 257.49 2.94091C257.662 3.17861 257.752 3.45187 257.759 3.7607H256.922ZM260.82 3.6877V4.3615H258.464V3.6877H260.82ZM259.096 2.65455H259.936V6.73382C259.936 6.89666 259.96 7.01925 260.009 7.1016C260.057 7.18209 260.12 7.2373 260.197 7.26725C260.275 7.29532 260.36 7.30936 260.452 7.30936C260.52 7.30936 260.578 7.30468 260.629 7.29532C260.68 7.28596 260.719 7.27848 260.747 7.27286L260.899 7.96631C260.85 7.98503 260.781 8.00374 260.691 8.02246C260.601 8.04305 260.489 8.05428 260.354 8.05615C260.133 8.05989 259.927 8.02059 259.736 7.93824C259.545 7.85588 259.391 7.72861 259.273 7.55642C259.155 7.38422 259.096 7.16805 259.096 6.90789V2.65455ZM263.561 8.08703C263.136 8.08703 262.77 7.99626 262.463 7.81471C262.158 7.63128 261.922 7.37393 261.756 7.04265C261.591 6.70949 261.508 6.31925 261.508 5.87193C261.508 5.43021 261.591 5.04091 261.756 4.70401C261.922 4.36711 262.154 4.10414 262.452 3.91511C262.751 3.72607 263.101 3.63155 263.502 3.63155C263.745 3.63155 263.981 3.67179 264.209 3.75227C264.438 3.83275 264.643 3.95909 264.824 4.13128C265.006 4.30348 265.149 4.52714 265.254 4.80227C265.358 5.07553 265.411 5.40775 265.411 5.79893V6.09652H261.983V5.46765H264.588C264.588 5.24679 264.543 5.0512 264.454 4.88088C264.364 4.70869 264.237 4.57299 264.074 4.4738C263.914 4.3746 263.724 4.325 263.507 4.325C263.272 4.325 263.066 4.38302 262.89 4.49906C262.716 4.61324 262.581 4.76297 262.485 4.94826C262.392 5.13168 262.345 5.33102 262.345 5.54626V6.03757C262.345 6.3258 262.396 6.57099 262.497 6.77313C262.6 6.97527 262.743 7.12968 262.926 7.23636C263.11 7.34118 263.324 7.39358 263.569 7.39358C263.728 7.39358 263.873 7.37112 264.004 7.3262C264.135 7.27941 264.249 7.21016 264.344 7.11845C264.439 7.02674 264.512 6.9135 264.563 6.77874L265.358 6.92193C265.294 7.15588 265.18 7.36083 265.015 7.53676C264.852 7.71083 264.647 7.84652 264.4 7.94385C264.155 8.0393 263.875 8.08703 263.561 8.08703ZM266.342 9.61711V3.6877H267.162V4.38676H267.232C267.281 4.29693 267.351 4.19305 267.443 4.07513C267.534 3.95722 267.662 3.85428 267.825 3.76631C267.987 3.67647 268.203 3.63155 268.47 3.63155C268.818 3.63155 269.129 3.71952 269.402 3.89545C269.676 4.07139 269.89 4.325 270.045 4.65628C270.203 4.98757 270.281 5.38623 270.281 5.85227C270.281 6.31832 270.203 6.71791 270.048 7.05107C269.893 7.38235 269.679 7.63783 269.408 7.81751C269.137 7.99532 268.827 8.08422 268.479 8.08422C268.217 8.08422 268.002 8.04024 267.836 7.95227C267.671 7.8643 267.542 7.76136 267.448 7.64345C267.355 7.52553 267.283 7.42072 267.232 7.32901H267.182V9.61711H266.342ZM267.165 5.84385C267.165 6.14706 267.209 6.41283 267.297 6.64118C267.385 6.86952 267.512 7.04826 267.679 7.17741C267.845 7.30468 268.049 7.36832 268.291 7.36832C268.541 7.36832 268.751 7.30187 268.92 7.16898C269.088 7.03422 269.215 6.85174 269.301 6.62152C269.389 6.39131 269.433 6.13209 269.433 5.84385C269.433 5.55936 269.39 5.30388 269.304 5.07741C269.22 4.85094 269.093 4.67219 268.922 4.54118C268.754 4.41016 268.543 4.34465 268.291 4.34465C268.047 4.34465 267.841 4.40735 267.673 4.53275C267.506 4.65816 267.38 4.83316 267.294 5.05775C267.208 5.28235 267.165 5.54439 267.165 5.84385ZM275.304 8.07861C274.919 8.07861 274.574 8.01217 274.271 7.87928C273.97 7.74639 273.731 7.56203 273.555 7.3262C273.381 7.0885 273.288 6.81337 273.275 6.5008H274.156C274.167 6.67112 274.225 6.81898 274.327 6.94439C274.432 7.06791 274.569 7.16337 274.737 7.23075C274.906 7.29813 275.093 7.33182 275.299 7.33182C275.525 7.33182 275.726 7.29251 275.9 7.2139C276.076 7.13529 276.213 7.0258 276.312 6.88543C276.412 6.74318 276.461 6.57941 276.461 6.39412C276.461 6.20134 276.412 6.03195 276.312 5.88596C276.215 5.7381 276.072 5.62206 275.883 5.53783C275.696 5.45361 275.469 5.4115 275.203 5.4115H274.718V4.70401H275.203C275.417 4.70401 275.604 4.66564 275.765 4.5889C275.928 4.51217 276.055 4.40548 276.147 4.26885C276.238 4.13035 276.284 3.96845 276.284 3.78316C276.284 3.60535 276.244 3.45094 276.164 3.31992C276.085 3.18703 275.973 3.08316 275.827 3.00829C275.683 2.93342 275.512 2.89599 275.316 2.89599C275.129 2.89599 274.954 2.93062 274.791 2.99987C274.63 3.06725 274.499 3.16457 274.398 3.29185C274.297 3.41725 274.242 3.56791 274.235 3.74385H273.395C273.405 3.43316 273.496 3.15989 273.67 2.92406C273.846 2.68824 274.079 2.50388 274.367 2.37099C274.655 2.2381 274.975 2.17166 275.327 2.17166C275.696 2.17166 276.014 2.24372 276.281 2.38783C276.551 2.53008 276.759 2.72005 276.905 2.95775C277.053 3.19545 277.126 3.45562 277.124 3.73824C277.126 4.06016 277.036 4.33342 276.854 4.55802C276.674 4.78262 276.435 4.93329 276.135 5.01003V5.05495C276.517 5.11297 276.813 5.26457 277.023 5.50976C277.234 5.75495 277.339 6.05909 277.337 6.42219C277.339 6.7385 277.251 7.02206 277.073 7.27286C276.897 7.52366 276.657 7.72112 276.352 7.86524C276.047 8.00749 275.697 8.07861 275.304 8.07861Z" fill="#A7A7A7"/>
<path d="M1.62762 17.8706V12.6H3.5063C3.91635 12.6 4.25605 12.6746 4.52541 12.8239C4.79478 12.9732 4.99637 13.1773 5.13019 13.4364C5.26402 13.6938 5.33093 13.9837 5.33093 14.3063C5.33093 14.6305 5.26316 14.9222 5.12762 15.1813C4.9938 15.4386 4.79135 15.6428 4.52027 15.7938C4.2509 15.943 3.91206 16.0177 3.50372 16.0177H2.21181V15.3434H3.43166C3.69073 15.3434 3.9009 15.2988 4.06218 15.2096C4.22345 15.1186 4.34184 14.9951 4.41733 14.839C4.49282 14.6829 4.53056 14.5053 4.53056 14.3063C4.53056 14.1072 4.49282 13.9305 4.41733 13.7761C4.34184 13.6217 4.2226 13.5008 4.05961 13.4133C3.89833 13.3258 3.68559 13.282 3.42137 13.282H2.42284V17.8706H1.62762ZM6.20143 17.8706V13.9177H6.94518V14.5456H6.98635C7.05841 14.3329 7.18537 14.1656 7.36723 14.0438C7.55081 13.9202 7.75841 13.8585 7.99003 13.8585C8.03807 13.8585 8.09469 13.8602 8.15988 13.8636C8.22679 13.8671 8.27912 13.8713 8.31687 13.8765V14.6125C8.28598 14.6039 8.23108 14.5945 8.15216 14.5842C8.07324 14.5722 7.99432 14.5662 7.9154 14.5662C7.73353 14.5662 7.5714 14.6048 7.429 14.682C7.28831 14.7575 7.17679 14.863 7.09444 14.9985C7.01209 15.1324 6.97091 15.2851 6.97091 15.4566V17.8706H6.20143ZM10.5063 17.9504C10.1357 17.9504 9.8123 17.8655 9.53608 17.6956C9.25985 17.5258 9.04539 17.2881 8.89269 16.9827C8.74 16.6773 8.66365 16.3205 8.66365 15.9121C8.66365 15.5021 8.74 15.1435 8.89269 14.8364C9.04539 14.5293 9.25985 14.2908 9.53608 14.121C9.8123 13.9511 10.1357 13.8662 10.5063 13.8662C10.8769 13.8662 11.2003 13.9511 11.4765 14.121C11.7527 14.2908 11.9672 14.5293 12.1199 14.8364C12.2726 15.1435 12.3489 15.5021 12.3489 15.9121C12.3489 16.3205 12.2726 16.6773 12.1199 16.9827C11.9672 17.2881 11.7527 17.5258 11.4765 17.6956C11.2003 17.8655 10.8769 17.9504 10.5063 17.9504ZM10.5089 17.3044C10.7491 17.3044 10.9481 17.2409 11.1059 17.114C11.2638 16.987 11.3804 16.818 11.4559 16.607C11.5331 16.396 11.5717 16.1635 11.5717 15.9096C11.5717 15.6574 11.5331 15.4258 11.4559 15.2147C11.3804 15.002 11.2638 14.8313 11.1059 14.7026C10.9481 14.5739 10.7491 14.5096 10.5089 14.5096C10.267 14.5096 10.0662 14.5739 9.90666 14.7026C9.74882 14.8313 9.6313 15.002 9.55409 15.2147C9.4786 15.4258 9.44086 15.6574 9.44086 15.9096C9.44086 16.1635 9.4786 16.396 9.55409 16.607C9.6313 16.818 9.74882 16.987 9.90666 17.114C10.0662 17.2409 10.267 17.3044 10.5089 17.3044ZM13.2079 19.353V13.9177H13.9593V14.5585H14.0237C14.0683 14.4761 14.1326 14.3809 14.2167 14.2728C14.3008 14.1647 14.4174 14.0704 14.5667 13.9897C14.7159 13.9074 14.9133 13.8662 15.1586 13.8662C15.4777 13.8662 15.7625 13.9468 16.013 14.1081C16.2635 14.2694 16.4599 14.5019 16.6023 14.8055C16.7465 15.1092 16.8185 15.4746 16.8185 15.9019C16.8185 16.3291 16.7473 16.6954 16.6049 17.0008C16.4625 17.3044 16.2669 17.5386 16.0182 17.7033C15.7694 17.8663 15.4854 17.9478 15.1663 17.9478C14.9261 17.9478 14.7297 17.9075 14.577 17.8269C14.426 17.7462 14.3076 17.6519 14.2218 17.5438C14.136 17.4357 14.07 17.3396 14.0237 17.2555H13.9773V19.353H13.2079ZM13.9619 15.8941C13.9619 16.1721 14.0022 16.4157 14.0829 16.625C14.1635 16.8343 14.2802 16.9982 14.4329 17.1166C14.5856 17.2332 14.7726 17.2916 14.9939 17.2916C15.2238 17.2916 15.4159 17.2307 15.5704 17.1088C15.7248 16.9853 15.8414 16.818 15.9204 16.607C16.001 16.396 16.0413 16.1584 16.0413 15.8941C16.0413 15.6334 16.0019 15.3992 15.9229 15.1916C15.8457 14.984 15.7291 14.8201 15.5729 14.7C15.4185 14.5799 15.2255 14.5199 14.9939 14.5199C14.7708 14.5199 14.5821 14.5773 14.4277 14.6923C14.275 14.8072 14.1592 14.9677 14.0803 15.1735C14.0014 15.3794 13.9619 15.6196 13.9619 15.8941ZM19.3843 17.9504C18.9949 17.9504 18.6595 17.8672 18.3781 17.7008C18.0984 17.5326 17.8822 17.2967 17.7296 16.993C17.5786 16.6876 17.5031 16.3299 17.5031 15.9199C17.5031 15.515 17.5786 15.1581 17.7296 14.8493C17.8822 14.5405 18.095 14.2994 18.3678 14.1261C18.6423 13.9528 18.9631 13.8662 19.3303 13.8662C19.5533 13.8662 19.7695 13.9031 19.9788 13.9769C20.1881 14.0506 20.376 14.1664 20.5424 14.3243C20.7088 14.4821 20.8401 14.6871 20.9362 14.9394C21.0322 15.1898 21.0803 15.4944 21.0803 15.853V16.1258H17.938V15.5493H20.3262C20.3262 15.3468 20.2851 15.1675 20.2027 15.0114C20.1204 14.8536 20.0046 14.7292 19.8553 14.6383C19.7077 14.5473 19.5345 14.5019 19.3354 14.5019C19.1193 14.5019 18.9305 14.555 18.7693 14.6614C18.6097 14.7661 18.4862 14.9033 18.3987 15.0732C18.3129 15.2413 18.27 15.424 18.27 15.6213V16.0717C18.27 16.3359 18.3163 16.5607 18.409 16.746C18.5033 16.9313 18.6346 17.0728 18.8027 17.1706C18.9708 17.2667 19.1673 17.3147 19.3921 17.3147C19.5379 17.3147 19.6708 17.2941 19.7909 17.253C19.911 17.2101 20.0148 17.1466 20.1023 17.0625C20.1898 16.9784 20.2568 16.8746 20.3031 16.7511L21.0314 16.8824C20.9731 17.0968 20.8684 17.2847 20.7174 17.446C20.5682 17.6055 20.3803 17.7299 20.1538 17.8191C19.9291 17.9066 19.6726 17.9504 19.3843 17.9504ZM21.9341 17.8706V13.9177H22.6778V14.5456H22.719C22.791 14.3329 22.918 14.1656 23.0999 14.0438C23.2834 13.9202 23.491 13.8585 23.7227 13.8585C23.7707 13.8585 23.8273 13.8602 23.8925 13.8636C23.9594 13.8671 24.0118 13.8713 24.0495 13.8765V14.6125C24.0186 14.6039 23.9637 14.5945 23.8848 14.5842C23.8059 14.5722 23.7269 14.5662 23.648 14.5662C23.4662 14.5662 23.304 14.6048 23.1616 14.682C23.0209 14.7575 22.9094 14.863 22.8271 14.9985C22.7447 15.1324 22.7035 15.2851 22.7035 15.4566V17.8706H21.9341ZM26.7942 13.9177V14.5353H24.635V13.9177H26.7942ZM25.214 12.9706H25.9835V16.7099C25.9835 16.8592 26.0058 16.9716 26.0504 17.0471C26.095 17.1209 26.1525 17.1715 26.2228 17.1989C26.2949 17.2246 26.373 17.2375 26.457 17.2375C26.5188 17.2375 26.5728 17.2332 26.6192 17.2246C26.6655 17.2161 26.7015 17.2092 26.7273 17.2041L26.8662 17.8397C26.8216 17.8569 26.7581 17.874 26.6758 17.8912C26.5934 17.9101 26.4905 17.9204 26.367 17.9221C26.1645 17.9255 25.9758 17.8895 25.8008 17.814C25.6258 17.7385 25.4842 17.6218 25.3761 17.464C25.2681 17.3061 25.214 17.108 25.214 16.8695V12.9706ZM28.1318 19.353C28.0168 19.353 27.9121 19.3435 27.8178 19.3246C27.7234 19.3075 27.6531 19.2886 27.6068 19.268L27.792 18.6375C27.9327 18.6753 28.058 18.6916 28.1678 18.6864C28.2776 18.6813 28.3745 18.6401 28.4586 18.5629C28.5444 18.4857 28.6199 18.3596 28.6851 18.1846L28.7803 17.9221L27.334 13.9177H28.1575L29.1586 16.9853H29.1998L30.2009 13.9177H31.027L29.3979 18.3982C29.3224 18.6041 29.2264 18.7782 29.1097 18.9206C28.993 19.0647 28.8541 19.1728 28.6928 19.2449C28.5315 19.3169 28.3445 19.353 28.1318 19.353ZM35.4361 17.8706H33.7298V12.6H35.4901C36.0065 12.6 36.45 12.7055 36.8206 12.9166C37.1912 13.1259 37.4752 13.427 37.6725 13.8199C37.8715 14.211 37.971 14.6803 37.971 15.2276C37.971 15.7766 37.8706 16.2484 37.6699 16.643C37.4709 17.0376 37.1826 17.3413 36.8052 17.5541C36.4277 17.7651 35.9714 17.8706 35.4361 17.8706ZM34.525 17.1758H35.3923C35.7938 17.1758 36.1275 17.1003 36.3934 16.9493C36.6594 16.7966 36.8584 16.5761 36.9905 16.2879C37.1226 15.9979 37.1886 15.6445 37.1886 15.2276C37.1886 14.8141 37.1226 14.4633 36.9905 14.175C36.8601 13.8868 36.6654 13.668 36.4063 13.5188C36.1472 13.3695 35.8255 13.2949 35.4412 13.2949H34.525V17.1758ZM40.6018 17.9504C40.2123 17.9504 39.8769 17.8672 39.5955 17.7008C39.3159 17.5326 39.0997 17.2967 38.947 16.993C38.796 16.6876 38.7205 16.3299 38.7205 15.9199C38.7205 15.515 38.796 15.1581 38.947 14.8493C39.0997 14.5405 39.3125 14.2994 39.5852 14.1261C39.8598 13.9528 40.1806 13.8662 40.5477 13.8662C40.7708 13.8662 40.987 13.9031 41.1963 13.9769C41.4056 14.0506 41.5935 14.1664 41.7599 14.3243C41.9263 14.4821 42.0576 14.6871 42.1536 14.9394C42.2497 15.1898 42.2977 15.4944 42.2977 15.853V16.1258H39.1555V15.5493H41.5437C41.5437 15.3468 41.5025 15.1675 41.4202 15.0114C41.3378 14.8536 41.222 14.7292 41.0727 14.6383C40.9252 14.5473 40.7519 14.5019 40.5529 14.5019C40.3367 14.5019 40.148 14.555 39.9867 14.6614C39.8272 14.7661 39.7036 14.9033 39.6161 15.0732C39.5303 15.2413 39.4875 15.424 39.4875 15.6213V16.0717C39.4875 16.3359 39.5338 16.5607 39.6264 16.746C39.7208 16.9313 39.852 17.0728 40.0202 17.1706C40.1883 17.2667 40.3848 17.3147 40.6095 17.3147C40.7553 17.3147 40.8883 17.2941 41.0084 17.253C41.1285 17.2101 41.2323 17.1466 41.3198 17.0625C41.4073 16.9784 41.4742 16.8746 41.5205 16.7511L42.2489 16.8824C42.1905 17.0968 42.0859 17.2847 41.9349 17.446C41.7856 17.6055 41.5977 17.7299 41.3713 17.8191C41.1465 17.9066 40.89 17.9504 40.6018 17.9504ZM44.9967 13.9177V14.5353H42.8375V13.9177H44.9967ZM43.4166 12.9706H44.1861V16.7099C44.1861 16.8592 44.2084 16.9716 44.253 17.0471C44.2976 17.1209 44.3551 17.1715 44.4254 17.1989C44.4975 17.2246 44.5755 17.2375 44.6596 17.2375C44.7214 17.2375 44.7754 17.2332 44.8217 17.2246C44.8681 17.2161 44.9041 17.2092 44.9298 17.2041L45.0688 17.8397C45.0242 17.8569 44.9607 17.874 44.8784 17.8912C44.796 17.9101 44.6931 17.9204 44.5695 17.9221C44.3671 17.9255 44.1784 17.8895 44.0034 17.814C43.8284 17.7385 43.6868 17.6218 43.5787 17.464C43.4706 17.3061 43.4166 17.108 43.4166 16.8695V12.9706ZM46.9983 17.9581C46.7478 17.9581 46.5213 17.9118 46.3189 17.8191C46.1164 17.7248 45.956 17.5884 45.8376 17.4099C45.721 17.2315 45.6626 17.0128 45.6626 16.7537C45.6626 16.5307 45.7055 16.3471 45.7913 16.203C45.8771 16.0588 45.9929 15.9447 46.1387 15.8607C46.2846 15.7766 46.4476 15.7131 46.6277 15.6702C46.8079 15.6273 46.9914 15.5947 47.1784 15.5724C47.4152 15.545 47.6074 15.5227 47.7549 15.5055C47.9025 15.4867 48.0097 15.4566 48.0766 15.4155C48.1435 15.3743 48.177 15.3074 48.177 15.2147V15.1967C48.177 14.972 48.1135 14.7978 47.9865 14.6743C47.8613 14.5508 47.6743 14.489 47.4255 14.489C47.1664 14.489 46.9623 14.5465 46.813 14.6614C46.6655 14.7746 46.5634 14.9008 46.5068 15.0397L45.7836 14.875C45.8694 14.6348 45.9946 14.4409 46.1593 14.2934C46.3257 14.1441 46.517 14.036 46.7332 13.9691C46.9494 13.9005 47.1767 13.8662 47.4152 13.8662C47.5731 13.8662 47.7403 13.8851 47.917 13.9228C48.0955 13.9588 48.2619 14.0258 48.4163 14.1235C48.5724 14.2213 48.7003 14.3612 48.7998 14.543C48.8993 14.7232 48.949 14.9574 48.949 15.2456V17.8706H48.1976V17.3302H48.1667C48.1169 17.4297 48.0423 17.5275 47.9428 17.6235C47.8433 17.7196 47.7155 17.7994 47.5593 17.8629C47.4032 17.9264 47.2162 17.9581 46.9983 17.9581ZM47.1656 17.3405C47.3783 17.3405 47.5602 17.2984 47.7112 17.2144C47.8639 17.1303 47.9797 17.0205 48.0586 16.8849C48.1392 16.7477 48.1795 16.601 48.1795 16.4449V15.9353C48.1521 15.9628 48.0989 15.9885 48.02 16.0125C47.9428 16.0348 47.8544 16.0546 47.7549 16.0717C47.6554 16.0871 47.5585 16.1017 47.4641 16.1155C47.3697 16.1275 47.2908 16.1378 47.2273 16.1463C47.0781 16.1652 46.9417 16.197 46.8182 16.2416C46.6963 16.2862 46.5985 16.3505 46.5248 16.4346C46.4527 16.5169 46.4167 16.6267 46.4167 16.764C46.4167 16.9544 46.487 17.0985 46.6277 17.1963C46.7684 17.2924 46.9477 17.3405 47.1656 17.3405ZM49.9739 17.8706V13.9177H50.7434V17.8706H49.9739ZM50.3625 13.3077C50.2287 13.3077 50.1138 13.2631 50.0177 13.1739C49.9233 13.083 49.8761 12.9749 49.8761 12.8496C49.8761 12.7227 49.9233 12.6146 50.0177 12.5254C50.1138 12.4345 50.2287 12.389 50.3625 12.389C50.4964 12.389 50.6105 12.4345 50.7048 12.5254C50.8009 12.6146 50.8489 12.7227 50.8489 12.8496C50.8489 12.9749 50.8009 13.083 50.7048 13.1739C50.6105 13.2631 50.4964 13.3077 50.3625 13.3077ZM52.5481 12.6V17.8706H51.7786V12.6H52.5481ZM56.5454 14.8827L55.848 15.0063C55.8189 14.9171 55.7725 14.8321 55.7091 14.7515C55.6473 14.6709 55.5632 14.6048 55.4568 14.5533C55.3505 14.5019 55.2175 14.4761 55.0579 14.4761C54.8401 14.4761 54.6582 14.525 54.5124 14.6228C54.3665 14.7189 54.2936 14.8433 54.2936 14.996C54.2936 15.1281 54.3425 15.2345 54.4403 15.3151C54.5381 15.3957 54.6959 15.4618 54.9138 15.5133L55.5418 15.6574C55.9055 15.7414 56.1766 15.871 56.355 16.046C56.5334 16.221 56.6227 16.4483 56.6227 16.728C56.6227 16.9647 56.554 17.1758 56.4168 17.361C56.2812 17.5446 56.0916 17.6887 55.848 17.7934C55.6061 17.8981 55.3256 17.9504 55.0065 17.9504C54.5638 17.9504 54.2027 17.856 53.923 17.6673C53.6434 17.4769 53.4718 17.2066 53.4083 16.8566L54.1521 16.7434C54.1984 16.9373 54.2936 17.084 54.4377 17.1835C54.5818 17.2813 54.7697 17.3302 55.0013 17.3302C55.2535 17.3302 55.4551 17.2778 55.6061 17.1732C55.7571 17.0668 55.8326 16.9373 55.8326 16.7846C55.8326 16.661 55.7863 16.5572 55.6936 16.4732C55.6027 16.3891 55.4628 16.3256 55.2741 16.2827L54.605 16.136C54.2361 16.052 53.9633 15.9182 53.7866 15.7346C53.6116 15.551 53.5241 15.3185 53.5241 15.0371C53.5241 14.8038 53.5893 14.5996 53.7197 14.4246C53.8501 14.2496 54.0303 14.1133 54.2602 14.0155C54.4901 13.9159 54.7534 13.8662 55.0502 13.8662C55.4774 13.8662 55.8137 13.9588 56.0591 14.1441C56.3044 14.3277 56.4665 14.5739 56.5454 14.8827Z" fill="#7275A3"/>
<path d="M133.628 17.8706V12.6H135.506C135.916 12.6 136.256 12.6746 136.525 12.8239C136.795 12.9732 136.996 13.1773 137.13 13.4364C137.264 13.6938 137.331 13.9837 137.331 14.3063C137.331 14.6305 137.263 14.9222 137.128 15.1813C136.994 15.4386 136.791 15.6428 136.52 15.7938C136.251 15.943 135.912 16.0177 135.504 16.0177H134.212V15.3434H135.432C135.691 15.3434 135.901 15.2988 136.062 15.2096C136.223 15.1186 136.342 14.9951 136.417 14.839C136.493 14.6829 136.531 14.5053 136.531 14.3063C136.531 14.1072 136.493 13.9305 136.417 13.7761C136.342 13.6217 136.223 13.5008 136.06 13.4133C135.898 13.3258 135.686 13.282 135.421 13.282H134.423V17.8706H133.628ZM138.201 17.8706V13.9177H138.945V14.5456H138.986C139.058 14.3329 139.185 14.1656 139.367 14.0438C139.551 13.9202 139.758 13.8585 139.99 13.8585C140.038 13.8585 140.095 13.8602 140.16 13.8636C140.227 13.8671 140.279 13.8713 140.317 13.8765V14.6125C140.286 14.6039 140.231 14.5945 140.152 14.5842C140.073 14.5722 139.994 14.5662 139.915 14.5662C139.734 14.5662 139.571 14.6048 139.429 14.682C139.288 14.7575 139.177 14.863 139.094 14.9985C139.012 15.1324 138.971 15.2851 138.971 15.4566V17.8706H138.201ZM142.506 17.9504C142.136 17.9504 141.812 17.8655 141.536 17.6956C141.26 17.5258 141.045 17.2881 140.893 16.9827C140.74 16.6773 140.664 16.3205 140.664 15.9121C140.664 15.5021 140.74 15.1435 140.893 14.8364C141.045 14.5293 141.26 14.2908 141.536 14.121C141.812 13.9511 142.136 13.8662 142.506 13.8662C142.877 13.8662 143.2 13.9511 143.477 14.121C143.753 14.2908 143.967 14.5293 144.12 14.8364C144.273 15.1435 144.349 15.5021 144.349 15.9121C144.349 16.3205 144.273 16.6773 144.12 16.9827C143.967 17.2881 143.753 17.5258 143.477 17.6956C143.2 17.8655 142.877 17.9504 142.506 17.9504ZM142.509 17.3044C142.749 17.3044 142.948 17.2409 143.106 17.114C143.264 16.987 143.38 16.818 143.456 16.607C143.533 16.396 143.572 16.1635 143.572 15.9096C143.572 15.6574 143.533 15.4258 143.456 15.2147C143.38 15.002 143.264 14.8313 143.106 14.7026C142.948 14.5739 142.749 14.5096 142.509 14.5096C142.267 14.5096 142.066 14.5739 141.907 14.7026C141.749 14.8313 141.631 15.002 141.554 15.2147C141.479 15.4258 141.441 15.6574 141.441 15.9096C141.441 16.1635 141.479 16.396 141.554 16.607C141.631 16.818 141.749 16.987 141.907 17.114C142.066 17.2409 142.267 17.3044 142.509 17.3044ZM145.208 19.353V13.9177H145.959V14.5585H146.024C146.068 14.4761 146.133 14.3809 146.217 14.2728C146.301 14.1647 146.417 14.0704 146.567 13.9897C146.716 13.9074 146.913 13.8662 147.159 13.8662C147.478 13.8662 147.763 13.9468 148.013 14.1081C148.263 14.2694 148.46 14.5019 148.602 14.8055C148.746 15.1092 148.819 15.4746 148.819 15.9019C148.819 16.3291 148.747 16.6954 148.605 17.0008C148.463 17.3044 148.267 17.5386 148.018 17.7033C147.769 17.8663 147.485 17.9478 147.166 17.9478C146.926 17.9478 146.73 17.9075 146.577 17.8269C146.426 17.7462 146.308 17.6519 146.222 17.5438C146.136 17.4357 146.07 17.3396 146.024 17.2555H145.977V19.353H145.208ZM145.962 15.8941C145.962 16.1721 146.002 16.4157 146.083 16.625C146.163 16.8343 146.28 16.9982 146.433 17.1166C146.586 17.2332 146.773 17.2916 146.994 17.2916C147.224 17.2916 147.416 17.2307 147.57 17.1088C147.725 16.9853 147.841 16.818 147.92 16.607C148.001 16.396 148.041 16.1584 148.041 15.8941C148.041 15.6334 148.002 15.3992 147.923 15.1916C147.846 14.984 147.729 14.8201 147.573 14.7C147.419 14.5799 147.226 14.5199 146.994 14.5199C146.771 14.5199 146.582 14.5773 146.428 14.6923C146.275 14.8072 146.159 14.9677 146.08 15.1735C146.001 15.3794 145.962 15.6196 145.962 15.8941ZM151.384 17.9504C150.995 17.9504 150.659 17.8672 150.378 17.7008C150.098 17.5326 149.882 17.2967 149.73 16.993C149.579 16.6876 149.503 16.3299 149.503 15.9199C149.503 15.515 149.579 15.1581 149.73 14.8493C149.882 14.5405 150.095 14.2994 150.368 14.1261C150.642 13.9528 150.963 13.8662 151.33 13.8662C151.553 13.8662 151.77 13.9031 151.979 13.9769C152.188 14.0506 152.376 14.1664 152.542 14.3243C152.709 14.4821 152.84 14.6871 152.936 14.9394C153.032 15.1898 153.08 15.4944 153.08 15.853V16.1258H149.938V15.5493H152.326C152.326 15.3468 152.285 15.1675 152.203 15.0114C152.12 14.8536 152.005 14.7292 151.855 14.6383C151.708 14.5473 151.534 14.5019 151.335 14.5019C151.119 14.5019 150.931 14.555 150.769 14.6614C150.61 14.7661 150.486 14.9033 150.399 15.0732C150.313 15.2413 150.27 15.424 150.27 15.6213V16.0717C150.27 16.3359 150.316 16.5607 150.409 16.746C150.503 16.9313 150.635 17.0728 150.803 17.1706C150.971 17.2667 151.167 17.3147 151.392 17.3147C151.538 17.3147 151.671 17.2941 151.791 17.253C151.911 17.2101 152.015 17.1466 152.102 17.0625C152.19 16.9784 152.257 16.8746 152.303 16.7511L153.031 16.8824C152.973 17.0968 152.868 17.2847 152.717 17.446C152.568 17.6055 152.38 17.7299 152.154 17.8191C151.929 17.9066 151.673 17.9504 151.384 17.9504ZM153.934 17.8706V13.9177H154.678V14.5456H154.719C154.791 14.3329 154.918 14.1656 155.1 14.0438C155.283 13.9202 155.491 13.8585 155.723 13.8585C155.771 13.8585 155.827 13.8602 155.893 13.8636C155.959 13.8671 156.012 13.8713 156.049 13.8765V14.6125C156.019 14.6039 155.964 14.5945 155.885 14.5842C155.806 14.5722 155.727 14.5662 155.648 14.5662C155.466 14.5662 155.304 14.6048 155.162 14.682C155.021 14.7575 154.909 14.863 154.827 14.9985C154.745 15.1324 154.704 15.2851 154.704 15.4566V17.8706H153.934ZM158.794 13.9177V14.5353H156.635V13.9177H158.794ZM157.214 12.9706H157.984V16.7099C157.984 16.8592 158.006 16.9716 158.05 17.0471C158.095 17.1209 158.152 17.1715 158.223 17.1989C158.295 17.2246 158.373 17.2375 158.457 17.2375C158.519 17.2375 158.573 17.2332 158.619 17.2246C158.665 17.2161 158.702 17.2092 158.727 17.2041L158.866 17.8397C158.822 17.8569 158.758 17.874 158.676 17.8912C158.593 17.9101 158.49 17.9204 158.367 17.9221C158.165 17.9255 157.976 17.8895 157.801 17.814C157.626 17.7385 157.484 17.6218 157.376 17.464C157.268 17.3061 157.214 17.108 157.214 16.8695V12.9706ZM160.132 19.353C160.017 19.353 159.912 19.3435 159.818 19.3246C159.723 19.3075 159.653 19.2886 159.607 19.268L159.792 18.6375C159.933 18.6753 160.058 18.6916 160.168 18.6864C160.278 18.6813 160.375 18.6401 160.459 18.5629C160.544 18.4857 160.62 18.3596 160.685 18.1846L160.78 17.9221L159.334 13.9177H160.157L161.159 16.9853H161.2L162.201 13.9177H163.027L161.398 18.3982C161.322 18.6041 161.226 18.7782 161.11 18.9206C160.993 19.0647 160.854 19.1728 160.693 19.2449C160.532 19.3169 160.345 19.353 160.132 19.353ZM167.436 17.8706H165.73V12.6H167.49C168.007 12.6 168.45 12.7055 168.821 12.9166C169.191 13.1259 169.475 13.427 169.672 13.8199C169.871 14.211 169.971 14.6803 169.971 15.2276C169.971 15.7766 169.871 16.2484 169.67 16.643C169.471 17.0376 169.183 17.3413 168.805 17.5541C168.428 17.7651 167.971 17.8706 167.436 17.8706ZM166.525 17.1758H167.392C167.794 17.1758 168.127 17.1003 168.393 16.9493C168.659 16.7966 168.858 16.5761 168.99 16.2879C169.123 15.9979 169.189 15.6445 169.189 15.2276C169.189 14.8141 169.123 14.4633 168.99 14.175C168.86 13.8868 168.665 13.668 168.406 13.5188C168.147 13.3695 167.826 13.2949 167.441 13.2949H166.525V17.1758ZM172.602 17.9504C172.212 17.9504 171.877 17.8672 171.596 17.7008C171.316 17.5326 171.1 17.2967 170.947 16.993C170.796 16.6876 170.721 16.3299 170.721 15.9199C170.721 15.515 170.796 15.1581 170.947 14.8493C171.1 14.5405 171.312 14.2994 171.585 14.1261C171.86 13.9528 172.181 13.8662 172.548 13.8662C172.771 13.8662 172.987 13.9031 173.196 13.9769C173.406 14.0506 173.593 14.1664 173.76 14.3243C173.926 14.4821 174.058 14.6871 174.154 14.9394C174.25 15.1898 174.298 15.4944 174.298 15.853V16.1258H171.155V15.5493H173.544C173.544 15.3468 173.503 15.1675 173.42 15.0114C173.338 14.8536 173.222 14.7292 173.073 14.6383C172.925 14.5473 172.752 14.5019 172.553 14.5019C172.337 14.5019 172.148 14.555 171.987 14.6614C171.827 14.7661 171.704 14.9033 171.616 15.0732C171.53 15.2413 171.487 15.424 171.487 15.6213V16.0717C171.487 16.3359 171.534 16.5607 171.626 16.746C171.721 16.9313 171.852 17.0728 172.02 17.1706C172.188 17.2667 172.385 17.3147 172.61 17.3147C172.755 17.3147 172.888 17.2941 173.008 17.253C173.129 17.2101 173.232 17.1466 173.32 17.0625C173.407 16.9784 173.474 16.8746 173.521 16.7511L174.249 16.8824C174.191 17.0968 174.086 17.2847 173.935 17.446C173.786 17.6055 173.598 17.7299 173.371 17.8191C173.147 17.9066 172.89 17.9504 172.602 17.9504ZM176.997 13.9177V14.5353H174.838V13.9177H176.997ZM175.417 12.9706H176.186V16.7099C176.186 16.8592 176.208 16.9716 176.253 17.0471C176.298 17.1209 176.355 17.1715 176.425 17.1989C176.497 17.2246 176.576 17.2375 176.66 17.2375C176.721 17.2375 176.775 17.2332 176.822 17.2246C176.868 17.2161 176.904 17.2092 176.93 17.2041L177.069 17.8397C177.024 17.8569 176.961 17.874 176.878 17.8912C176.796 17.9101 176.693 17.9204 176.57 17.9221C176.367 17.9255 176.178 17.8895 176.003 17.814C175.828 17.7385 175.687 17.6218 175.579 17.464C175.471 17.3061 175.417 17.108 175.417 16.8695V12.9706ZM178.998 17.9581C178.748 17.9581 178.521 17.9118 178.319 17.8191C178.116 17.7248 177.956 17.5884 177.838 17.4099C177.721 17.2315 177.663 17.0128 177.663 16.7537C177.663 16.5307 177.706 16.3471 177.791 16.203C177.877 16.0588 177.993 15.9447 178.139 15.8607C178.285 15.7766 178.448 15.7131 178.628 15.6702C178.808 15.6273 178.991 15.5947 179.178 15.5724C179.415 15.545 179.607 15.5227 179.755 15.5055C179.902 15.4867 180.01 15.4566 180.077 15.4155C180.144 15.3743 180.177 15.3074 180.177 15.2147V15.1967C180.177 14.972 180.113 14.7978 179.987 14.6743C179.861 14.5508 179.674 14.489 179.426 14.489C179.166 14.489 178.962 14.5465 178.813 14.6614C178.665 14.7746 178.563 14.9008 178.507 15.0397L177.784 14.875C177.869 14.6348 177.995 14.4409 178.159 14.2934C178.326 14.1441 178.517 14.036 178.733 13.9691C178.949 13.9005 179.177 13.8662 179.415 13.8662C179.573 13.8662 179.74 13.8851 179.917 13.9228C180.095 13.9588 180.262 14.0258 180.416 14.1235C180.572 14.2213 180.7 14.3612 180.8 14.543C180.899 14.7232 180.949 14.9574 180.949 15.2456V17.8706H180.198V17.3302H180.167C180.117 17.4297 180.042 17.5275 179.943 17.6235C179.843 17.7196 179.715 17.7994 179.559 17.8629C179.403 17.9264 179.216 17.9581 178.998 17.9581ZM179.166 17.3405C179.378 17.3405 179.56 17.2984 179.711 17.2144C179.864 17.1303 179.98 17.0205 180.059 16.8849C180.139 16.7477 180.18 16.601 180.18 16.4449V15.9353C180.152 15.9628 180.099 15.9885 180.02 16.0125C179.943 16.0348 179.854 16.0546 179.755 16.0717C179.655 16.0871 179.558 16.1017 179.464 16.1155C179.37 16.1275 179.291 16.1378 179.227 16.1463C179.078 16.1652 178.942 16.197 178.818 16.2416C178.696 16.2862 178.599 16.3505 178.525 16.4346C178.453 16.5169 178.417 16.6267 178.417 16.764C178.417 16.9544 178.487 17.0985 178.628 17.1963C178.768 17.2924 178.948 17.3405 179.166 17.3405ZM181.974 17.8706V13.9177H182.743V17.8706H181.974ZM182.363 13.3077C182.229 13.3077 182.114 13.2631 182.018 13.1739C181.923 13.083 181.876 12.9749 181.876 12.8496C181.876 12.7227 181.923 12.6146 182.018 12.5254C182.114 12.4345 182.229 12.389 182.363 12.389C182.496 12.389 182.61 12.4345 182.705 12.5254C182.801 12.6146 182.849 12.7227 182.849 12.8496C182.849 12.9749 182.801 13.083 182.705 13.1739C182.61 13.2631 182.496 13.3077 182.363 13.3077ZM184.548 12.6V17.8706H183.779V12.6H184.548ZM188.545 14.8827L187.848 15.0063C187.819 14.9171 187.773 14.8321 187.709 14.7515C187.647 14.6709 187.563 14.6048 187.457 14.5533C187.35 14.5019 187.218 14.4761 187.058 14.4761C186.84 14.4761 186.658 14.525 186.512 14.6228C186.367 14.7189 186.294 14.8433 186.294 14.996C186.294 15.1281 186.343 15.2345 186.44 15.3151C186.538 15.3957 186.696 15.4618 186.914 15.5133L187.542 15.6574C187.905 15.7414 188.177 15.871 188.355 16.046C188.533 16.221 188.623 16.4483 188.623 16.728C188.623 16.9647 188.554 17.1758 188.417 17.361C188.281 17.5446 188.092 17.6887 187.848 17.7934C187.606 17.8981 187.326 17.9504 187.006 17.9504C186.564 17.9504 186.203 17.856 185.923 17.6673C185.643 17.4769 185.472 17.2066 185.408 16.8566L186.152 16.7434C186.198 16.9373 186.294 17.084 186.438 17.1835C186.582 17.2813 186.77 17.3302 187.001 17.3302C187.254 17.3302 187.455 17.2778 187.606 17.1732C187.757 17.0668 187.833 16.9373 187.833 16.7846C187.833 16.661 187.786 16.5572 187.694 16.4732C187.603 16.3891 187.463 16.3256 187.274 16.2827L186.605 16.136C186.236 16.052 185.963 15.9182 185.787 15.7346C185.612 15.551 185.524 15.3185 185.524 15.0371C185.524 14.8038 185.589 14.5996 185.72 14.4246C185.85 14.2496 186.03 14.1133 186.26 14.0155C186.49 13.9159 186.753 13.8662 187.05 13.8662C187.477 13.8662 187.814 13.9588 188.059 14.1441C188.304 14.3277 188.467 14.5739 188.545 14.8827Z" fill="#7275A3"/>
<path d="M253.628 17.8706V12.6H255.506C255.916 12.6 256.256 12.6746 256.525 12.8239C256.795 12.9732 256.996 13.1773 257.13 13.4364C257.264 13.6938 257.331 13.9837 257.331 14.3063C257.331 14.6305 257.263 14.9222 257.128 15.1813C256.994 15.4386 256.791 15.6428 256.52 15.7938C256.251 15.943 255.912 16.0177 255.504 16.0177H254.212V15.3434H255.432C255.691 15.3434 255.901 15.2988 256.062 15.2096C256.223 15.1186 256.342 14.9951 256.417 14.839C256.493 14.6829 256.531 14.5053 256.531 14.3063C256.531 14.1072 256.493 13.9305 256.417 13.7761C256.342 13.6217 256.223 13.5008 256.06 13.4133C255.898 13.3258 255.686 13.282 255.421 13.282H254.423V17.8706H253.628ZM258.201 17.8706V13.9177H258.945V14.5456H258.986C259.058 14.3329 259.185 14.1656 259.367 14.0438C259.551 13.9202 259.758 13.8585 259.99 13.8585C260.038 13.8585 260.095 13.8602 260.16 13.8636C260.227 13.8671 260.279 13.8713 260.317 13.8765V14.6125C260.286 14.6039 260.231 14.5945 260.152 14.5842C260.073 14.5722 259.994 14.5662 259.915 14.5662C259.734 14.5662 259.571 14.6048 259.429 14.682C259.288 14.7575 259.177 14.863 259.094 14.9985C259.012 15.1324 258.971 15.2851 258.971 15.4566V17.8706H258.201ZM262.506 17.9504C262.136 17.9504 261.812 17.8655 261.536 17.6956C261.26 17.5258 261.045 17.2881 260.893 16.9827C260.74 16.6773 260.664 16.3205 260.664 15.9121C260.664 15.5021 260.74 15.1435 260.893 14.8364C261.045 14.5293 261.26 14.2908 261.536 14.121C261.812 13.9511 262.136 13.8662 262.506 13.8662C262.877 13.8662 263.2 13.9511 263.477 14.121C263.753 14.2908 263.967 14.5293 264.12 14.8364C264.273 15.1435 264.349 15.5021 264.349 15.9121C264.349 16.3205 264.273 16.6773 264.12 16.9827C263.967 17.2881 263.753 17.5258 263.477 17.6956C263.2 17.8655 262.877 17.9504 262.506 17.9504ZM262.509 17.3044C262.749 17.3044 262.948 17.2409 263.106 17.114C263.264 16.987 263.38 16.818 263.456 16.607C263.533 16.396 263.572 16.1635 263.572 15.9096C263.572 15.6574 263.533 15.4258 263.456 15.2147C263.38 15.002 263.264 14.8313 263.106 14.7026C262.948 14.5739 262.749 14.5096 262.509 14.5096C262.267 14.5096 262.066 14.5739 261.907 14.7026C261.749 14.8313 261.631 15.002 261.554 15.2147C261.479 15.4258 261.441 15.6574 261.441 15.9096C261.441 16.1635 261.479 16.396 261.554 16.607C261.631 16.818 261.749 16.987 261.907 17.114C262.066 17.2409 262.267 17.3044 262.509 17.3044ZM265.208 19.353V13.9177H265.959V14.5585H266.024C266.068 14.4761 266.133 14.3809 266.217 14.2728C266.301 14.1647 266.417 14.0704 266.567 13.9897C266.716 13.9074 266.913 13.8662 267.159 13.8662C267.478 13.8662 267.763 13.9468 268.013 14.1081C268.263 14.2694 268.46 14.5019 268.602 14.8055C268.746 15.1092 268.819 15.4746 268.819 15.9019C268.819 16.3291 268.747 16.6954 268.605 17.0008C268.463 17.3044 268.267 17.5386 268.018 17.7033C267.769 17.8663 267.485 17.9478 267.166 17.9478C266.926 17.9478 266.73 17.9075 266.577 17.8269C266.426 17.7462 266.308 17.6519 266.222 17.5438C266.136 17.4357 266.07 17.3396 266.024 17.2555H265.977V19.353H265.208ZM265.962 15.8941C265.962 16.1721 266.002 16.4157 266.083 16.625C266.163 16.8343 266.28 16.9982 266.433 17.1166C266.586 17.2332 266.773 17.2916 266.994 17.2916C267.224 17.2916 267.416 17.2307 267.57 17.1088C267.725 16.9853 267.841 16.818 267.92 16.607C268.001 16.396 268.041 16.1584 268.041 15.8941C268.041 15.6334 268.002 15.3992 267.923 15.1916C267.846 14.984 267.729 14.8201 267.573 14.7C267.419 14.5799 267.226 14.5199 266.994 14.5199C266.771 14.5199 266.582 14.5773 266.428 14.6923C266.275 14.8072 266.159 14.9677 266.08 15.1735C266.001 15.3794 265.962 15.6196 265.962 15.8941ZM271.384 17.9504C270.995 17.9504 270.659 17.8672 270.378 17.7008C270.098 17.5326 269.882 17.2967 269.73 16.993C269.579 16.6876 269.503 16.3299 269.503 15.9199C269.503 15.515 269.579 15.1581 269.73 14.8493C269.882 14.5405 270.095 14.2994 270.368 14.1261C270.642 13.9528 270.963 13.8662 271.33 13.8662C271.553 13.8662 271.77 13.9031 271.979 13.9769C272.188 14.0506 272.376 14.1664 272.542 14.3243C272.709 14.4821 272.84 14.6871 272.936 14.9394C273.032 15.1898 273.08 15.4944 273.08 15.853V16.1258H269.938V15.5493H272.326C272.326 15.3468 272.285 15.1675 272.203 15.0114C272.12 14.8536 272.005 14.7292 271.855 14.6383C271.708 14.5473 271.534 14.5019 271.335 14.5019C271.119 14.5019 270.931 14.555 270.769 14.6614C270.61 14.7661 270.486 14.9033 270.399 15.0732C270.313 15.2413 270.27 15.424 270.27 15.6213V16.0717C270.27 16.3359 270.316 16.5607 270.409 16.746C270.503 16.9313 270.635 17.0728 270.803 17.1706C270.971 17.2667 271.167 17.3147 271.392 17.3147C271.538 17.3147 271.671 17.2941 271.791 17.253C271.911 17.2101 272.015 17.1466 272.102 17.0625C272.19 16.9784 272.257 16.8746 272.303 16.7511L273.031 16.8824C272.973 17.0968 272.868 17.2847 272.717 17.446C272.568 17.6055 272.38 17.7299 272.154 17.8191C271.929 17.9066 271.673 17.9504 271.384 17.9504ZM273.934 17.8706V13.9177H274.678V14.5456H274.719C274.791 14.3329 274.918 14.1656 275.1 14.0438C275.283 13.9202 275.491 13.8585 275.723 13.8585C275.771 13.8585 275.827 13.8602 275.893 13.8636C275.959 13.8671 276.012 13.8713 276.049 13.8765V14.6125C276.019 14.6039 275.964 14.5945 275.885 14.5842C275.806 14.5722 275.727 14.5662 275.648 14.5662C275.466 14.5662 275.304 14.6048 275.162 14.682C275.021 14.7575 274.909 14.863 274.827 14.9985C274.745 15.1324 274.704 15.2851 274.704 15.4566V17.8706H273.934ZM278.794 13.9177V14.5353H276.635V13.9177H278.794ZM277.214 12.9706H277.984V16.7099C277.984 16.8592 278.006 16.9716 278.05 17.0471C278.095 17.1209 278.152 17.1715 278.223 17.1989C278.295 17.2246 278.373 17.2375 278.457 17.2375C278.519 17.2375 278.573 17.2332 278.619 17.2246C278.665 17.2161 278.702 17.2092 278.727 17.2041L278.866 17.8397C278.822 17.8569 278.758 17.874 278.676 17.8912C278.593 17.9101 278.49 17.9204 278.367 17.9221C278.165 17.9255 277.976 17.8895 277.801 17.814C277.626 17.7385 277.484 17.6218 277.376 17.464C277.268 17.3061 277.214 17.108 277.214 16.8695V12.9706ZM280.132 19.353C280.017 19.353 279.912 19.3435 279.818 19.3246C279.723 19.3075 279.653 19.2886 279.607 19.268L279.792 18.6375C279.933 18.6753 280.058 18.6916 280.168 18.6864C280.278 18.6813 280.375 18.6401 280.459 18.5629C280.544 18.4857 280.62 18.3596 280.685 18.1846L280.78 17.9221L279.334 13.9177H280.157L281.159 16.9853H281.2L282.201 13.9177H283.027L281.398 18.3982C281.322 18.6041 281.226 18.7782 281.11 18.9206C280.993 19.0647 280.854 19.1728 280.693 19.2449C280.532 19.3169 280.345 19.353 280.132 19.353ZM287.436 17.8706H285.73V12.6H287.49C288.007 12.6 288.45 12.7055 288.821 12.9166C289.191 13.1259 289.475 13.427 289.672 13.8199C289.871 14.211 289.971 14.6803 289.971 15.2276C289.971 15.7766 289.871 16.2484 289.67 16.643C289.471 17.0376 289.183 17.3413 288.805 17.5541C288.428 17.7651 287.971 17.8706 287.436 17.8706ZM286.525 17.1758H287.392C287.794 17.1758 288.127 17.1003 288.393 16.9493C288.659 16.7966 288.858 16.5761 288.99 16.2879C289.123 15.9979 289.189 15.6445 289.189 15.2276C289.189 14.8141 289.123 14.4633 288.99 14.175C288.86 13.8868 288.665 13.668 288.406 13.5188C288.147 13.3695 287.826 13.2949 287.441 13.2949H286.525V17.1758ZM292.602 17.9504C292.212 17.9504 291.877 17.8672 291.596 17.7008C291.316 17.5326 291.1 17.2967 290.947 16.993C290.796 16.6876 290.721 16.3299 290.721 15.9199C290.721 15.515 290.796 15.1581 290.947 14.8493C291.1 14.5405 291.312 14.2994 291.585 14.1261C291.86 13.9528 292.181 13.8662 292.548 13.8662C292.771 13.8662 292.987 13.9031 293.196 13.9769C293.406 14.0506 293.593 14.1664 293.76 14.3243C293.926 14.4821 294.058 14.6871 294.154 14.9394C294.25 15.1898 294.298 15.4944 294.298 15.853V16.1258H291.155V15.5493H293.544C293.544 15.3468 293.503 15.1675 293.42 15.0114C293.338 14.8536 293.222 14.7292 293.073 14.6383C292.925 14.5473 292.752 14.5019 292.553 14.5019C292.337 14.5019 292.148 14.555 291.987 14.6614C291.827 14.7661 291.704 14.9033 291.616 15.0732C291.53 15.2413 291.487 15.424 291.487 15.6213V16.0717C291.487 16.3359 291.534 16.5607 291.626 16.746C291.721 16.9313 291.852 17.0728 292.02 17.1706C292.188 17.2667 292.385 17.3147 292.61 17.3147C292.755 17.3147 292.888 17.2941 293.008 17.253C293.129 17.2101 293.232 17.1466 293.32 17.0625C293.407 16.9784 293.474 16.8746 293.521 16.7511L294.249 16.8824C294.191 17.0968 294.086 17.2847 293.935 17.446C293.786 17.6055 293.598 17.7299 293.371 17.8191C293.147 17.9066 292.89 17.9504 292.602 17.9504ZM296.997 13.9177V14.5353H294.838V13.9177H296.997ZM295.417 12.9706H296.186V16.7099C296.186 16.8592 296.208 16.9716 296.253 17.0471C296.298 17.1209 296.355 17.1715 296.425 17.1989C296.497 17.2246 296.576 17.2375 296.66 17.2375C296.721 17.2375 296.775 17.2332 296.822 17.2246C296.868 17.2161 296.904 17.2092 296.93 17.2041L297.069 17.8397C297.024 17.8569 296.961 17.874 296.878 17.8912C296.796 17.9101 296.693 17.9204 296.57 17.9221C296.367 17.9255 296.178 17.8895 296.003 17.814C295.828 17.7385 295.687 17.6218 295.579 17.464C295.471 17.3061 295.417 17.108 295.417 16.8695V12.9706ZM298.998 17.9581C298.748 17.9581 298.521 17.9118 298.319 17.8191C298.116 17.7248 297.956 17.5884 297.838 17.4099C297.721 17.2315 297.663 17.0128 297.663 16.7537C297.663 16.5307 297.706 16.3471 297.791 16.203C297.877 16.0588 297.993 15.9447 298.139 15.8607C298.285 15.7766 298.448 15.7131 298.628 15.6702C298.808 15.6273 298.991 15.5947 299.178 15.5724C299.415 15.545 299.607 15.5227 299.755 15.5055C299.902 15.4867 300.01 15.4566 300.077 15.4155C300.144 15.3743 300.177 15.3074 300.177 15.2147V15.1967C300.177 14.972 300.113 14.7978 299.987 14.6743C299.861 14.5508 299.674 14.489 299.426 14.489C299.166 14.489 298.962 14.5465 298.813 14.6614C298.665 14.7746 298.563 14.9008 298.507 15.0397L297.784 14.875C297.869 14.6348 297.995 14.4409 298.159 14.2934C298.326 14.1441 298.517 14.036 298.733 13.9691C298.949 13.9005 299.177 13.8662 299.415 13.8662C299.573 13.8662 299.74 13.8851 299.917 13.9228C300.095 13.9588 300.262 14.0258 300.416 14.1235C300.572 14.2213 300.7 14.3612 300.8 14.543C300.899 14.7232 300.949 14.9574 300.949 15.2456V17.8706H300.198V17.3302H300.167C300.117 17.4297 300.042 17.5275 299.943 17.6235C299.843 17.7196 299.715 17.7994 299.559 17.8629C299.403 17.9264 299.216 17.9581 298.998 17.9581ZM299.166 17.3405C299.378 17.3405 299.56 17.2984 299.711 17.2144C299.864 17.1303 299.98 17.0205 300.059 16.8849C300.139 16.7477 300.18 16.601 300.18 16.4449V15.9353C300.152 15.9628 300.099 15.9885 300.02 16.0125C299.943 16.0348 299.854 16.0546 299.755 16.0717C299.655 16.0871 299.558 16.1017 299.464 16.1155C299.37 16.1275 299.291 16.1378 299.227 16.1463C299.078 16.1652 298.942 16.197 298.818 16.2416C298.696 16.2862 298.599 16.3505 298.525 16.4346C298.453 16.5169 298.417 16.6267 298.417 16.764C298.417 16.9544 298.487 17.0985 298.628 17.1963C298.768 17.2924 298.948 17.3405 299.166 17.3405ZM301.974 17.8706V13.9177H302.743V17.8706H301.974ZM302.363 13.3077C302.229 13.3077 302.114 13.2631 302.018 13.1739C301.923 13.083 301.876 12.9749 301.876 12.8496C301.876 12.7227 301.923 12.6146 302.018 12.5254C302.114 12.4345 302.229 12.389 302.363 12.389C302.496 12.389 302.61 12.4345 302.705 12.5254C302.801 12.6146 302.849 12.7227 302.849 12.8496C302.849 12.9749 302.801 13.083 302.705 13.1739C302.61 13.2631 302.496 13.3077 302.363 13.3077ZM304.548 12.6V17.8706H303.779V12.6H304.548ZM308.545 14.8827L307.848 15.0063C307.819 14.9171 307.773 14.8321 307.709 14.7515C307.647 14.6709 307.563 14.6048 307.457 14.5533C307.35 14.5019 307.218 14.4761 307.058 14.4761C306.84 14.4761 306.658 14.525 306.512 14.6228C306.367 14.7189 306.294 14.8433 306.294 14.996C306.294 15.1281 306.343 15.2345 306.44 15.3151C306.538 15.3957 306.696 15.4618 306.914 15.5133L307.542 15.6574C307.905 15.7414 308.177 15.871 308.355 16.046C308.533 16.221 308.623 16.4483 308.623 16.728C308.623 16.9647 308.554 17.1758 308.417 17.361C308.281 17.5446 308.092 17.6887 307.848 17.7934C307.606 17.8981 307.326 17.9504 307.006 17.9504C306.564 17.9504 306.203 17.856 305.923 17.6673C305.643 17.4769 305.472 17.2066 305.408 16.8566L306.152 16.7434C306.198 16.9373 306.294 17.084 306.438 17.1835C306.582 17.2813 306.77 17.3302 307.001 17.3302C307.254 17.3302 307.455 17.2778 307.606 17.1732C307.757 17.0668 307.833 16.9373 307.833 16.7846C307.833 16.661 307.786 16.5572 307.694 16.4732C307.603 16.3891 307.463 16.3256 307.274 16.2827L306.605 16.136C306.236 16.052 305.963 15.9182 305.787 15.7346C305.612 15.551 305.524 15.3185 305.524 15.0371C305.524 14.8038 305.589 14.5996 305.72 14.4246C305.85 14.2496 306.03 14.1133 306.26 14.0155C306.49 13.9159 306.753 13.8662 307.05 13.8662C307.477 13.8662 307.814 13.9588 308.059 14.1441C308.304 14.3277 308.467 14.5739 308.545 14.8827Z" fill="#7275A3"/>
</svg>
