<svg width="20" height="21" viewBox="0 0 20 21" fill="none" xmlns="http://www.w3.org/2000/svg">
<path d="M2.15674 2.64576H1.96803V2.83448V7.14796V7.33667H2.15674H6.47022H6.65894V7.14796V2.83448V2.64576H6.47022H2.15674ZM17.2539 7.33667H17.4426V7.14796V2.83448V2.64576H17.2539H12.9404H12.7517V2.83448V7.14796V7.33667H12.9404H17.2539ZM2.15674 13.4295H1.96803V13.6182V17.9317V18.1204H2.15674H6.47022H6.65894V17.9317V13.6182V13.4295H6.47022H2.15674ZM14.0188 14.8853H14.2075V14.6966V11.6502H15.9868V14.6966V14.8853H16.1756H19.222V16.6646H16.1756H15.9868V16.8533V19.8997H14.2075V16.8533V16.6646H14.0188H10.9724V14.8853H14.0188ZM8.43825 9.11598H0.188715V0.866449H8.43825V9.11598ZM19.222 9.11598H10.9724V0.866449H19.222V9.11598ZM8.43825 11.6502V19.8997H0.188715V11.6502H8.43825Z" fill="#3D3C3C" stroke="#F2FBF7" stroke-width="0.37743"/>
</svg>
