<svg width="31" height="26" viewBox="0 0 31 26" fill="none" xmlns="http://www.w3.org/2000/svg">
<path d="M1.6268 13.3603C1.96394 10.4211 3.30903 7.67366 5.44964 5.55196L7.8069 7.81951L8.89837 6.76998L6.58353 4.54326C8.86624 2.72396 11.6961 1.65868 14.6558 1.50452V5.19569H16.1985V1.50452C19.1582 1.65863 21.988 2.72391 24.2707 4.54326L22.0492 6.68017L23.1407 7.7297L25.4046 5.55122C27.5454 7.67311 28.8905 10.4208 29.2274 13.3603H25.9823V14.8448H29.3115C29.3147 17.9407 28.1945 20.9405 26.1443 23.3264L23.5063 20.7879L22.4148 21.8375L25.0976 24.4182L25.0876 24.4271L26.1605 25.4937C27.6472 24.1123 28.8291 22.4566 29.6355 20.6257C30.442 18.7947 30.8565 16.826 30.8542 14.8374C30.8542 6.64306 23.9467 0 15.4271 0C6.9075 0 1.0039e-05 6.64231 1.0039e-05 14.8374C-0.00463272 18.7487 1.60125 22.5024 4.46616 25.277L5.56148 24.2327L5.54683 24.2178L7.86552 21.9874L6.77483 20.9379L4.52324 23.1037C2.59003 20.7531 1.53964 17.8425 1.54272 14.8448H4.66903V13.3603H1.6268Z" fill="#3B5998"/>
<path d="M16.7365 13.4346C17.0384 13.405 17.3412 13.4825 17.5879 13.6526L25.7247 20.5087C26.9806 21.374 26.1528 22.6484 24.7814 21.9667L14.7419 18.1247C14.4728 17.9908 14.2634 17.7665 14.1535 17.4942L13.4725 15.4206C13.5302 14.6333 13.7315 14.3168 14.5072 13.7947L16.7368 13.4339L16.7365 13.4346Z" fill="#3B5998"/>
</svg>
