<svg width="13" height="13" viewBox="0 0 13 13" fill="none" xmlns="http://www.w3.org/2000/svg">
<path d="M1.44444 1.29085H1.29085V1.44444V4.33333V4.48693H1.44444H4.33333H4.48693V4.33333V1.44444V1.29085H4.33333H1.44444ZM11.5556 4.48693H11.7092V4.33333V1.44444V1.29085H11.5556H8.66667H8.51307V1.44444V4.33333V4.48693H8.66667H11.5556ZM1.44444 8.51307H1.29085V8.66667V11.5556V11.7092H1.44444H4.33333H4.48693V11.5556V8.66667V8.51307H4.33333H1.44444ZM9.38889 9.54248H9.54248V9.38889V7.37582H10.6797V9.38889V9.54248H10.8333H12.8464V10.6797H10.8333H10.6797V10.8333V12.8464H9.54248V10.8333V10.6797H9.38889H7.37582V9.54248H9.38889ZM5.62418 5.62418H0.153596V0.153596H5.62418V5.62418ZM12.8464 5.62418H7.37582V0.153596H12.8464V5.62418ZM5.62418 7.37582V12.8464H0.153596V7.37582H5.62418Z" fill="#3D3C3C" stroke="#F2FBF7" stroke-width="0.307192"/>
</svg>
