<svg width="16" height="16" viewBox="0 0 16 16" fill="none" xmlns="http://www.w3.org/2000/svg">
<path d="M9.87384 14.6613H8.5573C7.83321 14.6613 7.24076 14.0689 7.24076 13.3448V10.0534H11.1904V13.3448C11.1904 14.0689 10.5979 14.6613 9.87384 14.6613ZM4.60769 9.39514H13.8235L9.87384 6.57117V4.12899C9.87384 3.06917 9.17607 1.49591 7.24076 1.49591C5.30545 1.49591 4.60769 3.06917 4.60769 4.12899C4.60769 4.42521 4.48262 4.78726 3.94942 4.78726H3.29115V2.15418H1.97461V8.0786H3.29115V6.1038H3.94942C5.39761 6.1038 5.92422 4.92549 5.92422 4.12899C5.92422 3.91176 5.99005 2.81245 7.24076 2.81245C8.4454 2.81245 8.5573 3.82618 8.5573 4.12899V6.57117L4.60769 9.39514Z" fill="#3D3C3C"/>
</svg>
