<svg width="20" height="20" viewBox="0 0 20 20" fill="none" xmlns="http://www.w3.org/2000/svg">
<path d="M19.2406 16.8665V8.6205H7.55882V16.8665H10.9947V18.2408H0V19.6152H19.2406V18.2408H15.8048V16.8665H19.2406ZM15.8048 15.4922V13.4307H17.8663V15.4922H15.8048ZM14.4305 13.4307V15.4922H12.369V13.4307H14.4305ZM12.369 12.0563V9.99483H14.4305V12.0563H12.369ZM17.8663 12.0563H15.8048V9.99483H17.8663V12.0563ZM10.9947 9.99483V12.0563H8.93316V9.99483H10.9947ZM8.93316 15.4922V13.4307H10.9947V15.4922H8.93316ZM14.4305 18.2408H12.369V16.8665H14.4305V18.2408ZM5.03899 9.29461C4.69729 8.98892 4.43748 8.6026 4.28323 8.17084C4.12898 7.73909 4.08518 7.2756 4.15582 6.82259C4.22645 6.36958 4.40929 5.94144 4.68768 5.57714C4.96606 5.21285 5.33115 4.92397 5.7497 4.73683C6.16825 4.54968 6.62697 4.47021 7.08408 4.50564C7.5412 4.54107 7.98219 4.69029 8.3669 4.9397C8.75161 5.18911 9.06782 5.53079 9.28674 5.93364C9.50566 6.33648 9.62034 6.78768 9.62032 7.24617H8.24599C8.24611 7.01688 8.18885 6.79121 8.07944 6.5897C7.97004 6.3882 7.81195 6.21727 7.61959 6.09249C7.42723 5.9677 7.2067 5.89303 6.9781 5.87527C6.7495 5.85751 6.52009 5.89723 6.31077 5.99081C6.10144 6.08439 5.91886 6.22885 5.77964 6.41104C5.64043 6.59323 5.54901 6.80735 5.51371 7.03391C5.47841 7.26047 5.50036 7.49225 5.57755 7.70816C5.65474 7.92406 5.78473 8.11723 5.95567 8.27005L5.03899 9.29461ZM6.18449 0.374512H7.55882V3.12317H6.18449V0.374512ZM0 6.559H2.74866V7.93334H0V6.559ZM1.52688 2.87305L2.49853 1.90139L4.44184 3.8447L3.47019 4.81635L1.52688 2.87305ZM10.2731 4.81635L9.30148 3.8447L11.2448 1.90139L12.2164 2.87305L10.2731 4.81635Z" fill="#363636"/>
</svg>
