<svg width="20" height="20" viewBox="0 0 20 20" fill="none" xmlns="http://www.w3.org/2000/svg">
<path d="M14.721 2.03784H5.7254C4.82339 2.03784 4.08984 2.74847 4.08984 3.62229V5.99895C4.08984 6.87277 4.82339 7.5834 5.7254 7.5834H14.721C15.623 7.5834 16.3565 6.87277 16.3565 5.99895V3.62229C16.3565 2.74847 15.623 2.03784 14.721 2.03784Z" fill="#363636"/>
<path d="M10.6323 12.3368V10.7523C10.6323 9.87851 9.89873 9.16788 8.99672 9.16788H3.27227V4.41455C2.37027 4.41455 1.63672 5.12517 1.63672 5.999V9.16788C1.63672 10.0417 2.37027 10.7523 3.27227 10.7523H8.99672V12.3368C8.77983 12.3368 8.57183 12.4202 8.41846 12.5688C8.2651 12.7174 8.17894 12.9189 8.17894 13.129V17.0901C8.17894 17.3002 8.2651 17.5017 8.41846 17.6503C8.57183 17.7989 8.77983 17.8823 8.99672 17.8823H10.6323C10.8492 17.8823 11.0572 17.7989 11.2105 17.6503C11.3639 17.5017 11.4501 17.3002 11.4501 17.0901V13.129C11.4501 12.9189 11.3639 12.7174 11.2105 12.5688C11.0572 12.4202 10.8492 12.3368 10.6323 12.3368Z" fill="#363636"/>
</svg>
