<svg width="13" height="14" viewBox="0 0 13 14" fill="none" xmlns="http://www.w3.org/2000/svg">
<g clip-path="url(#clip0_2_8028)">
<path d="M6.24674 2.95216V2.15654H7.80831V1.37575C7.80831 1.16868 7.72605 0.970082 7.57962 0.823657C7.43319 0.677232 7.2346 0.594971 7.02752 0.594971H4.68517C4.4781 0.594971 4.2795 0.677232 4.13307 0.823657C3.98665 0.970082 3.90439 1.16868 3.90439 1.37575V2.15654H5.46596V2.95216C4.15767 3.05309 2.93932 3.65683 2.06657 4.63669C1.19382 5.61654 0.734509 6.89635 0.785014 8.20755C0.83552 9.51876 1.39192 10.7594 2.33746 11.6693C3.28299 12.5791 4.54417 13.0873 5.85635 13.0873C7.16852 13.0873 8.4297 12.5791 9.37524 11.6693C10.3208 10.7594 10.8772 9.51876 10.9277 8.20755C10.9782 6.89635 10.5189 5.61654 9.64612 4.63669C8.77337 3.65683 7.55503 3.05309 6.24674 2.95216ZM8.6172 10.7733C7.88014 11.5103 6.89947 11.9163 5.85635 11.9163C4.81322 11.9163 3.83334 11.5103 3.0955 10.7733C2.35844 10.0362 1.95243 9.05554 1.95243 8.01241C1.95243 6.96929 2.35844 5.9894 3.0955 5.25156C3.79583 4.54751 4.73957 4.13894 5.7322 4.11006L5.46752 7.94136C5.44487 8.26227 5.61977 8.40281 5.85557 8.40281C6.09136 8.40281 6.26704 8.26227 6.24362 7.94136L5.97893 4.11006C6.97521 4.14129 7.90747 4.54339 8.61564 5.25156C9.3527 5.98862 9.7587 6.96929 9.7587 8.01241C9.7587 9.05554 9.3527 10.0354 8.61564 10.7733H8.6172Z" fill="#2CBF81"/>
</g>
<defs>
<clipPath id="clip0_2_8028">
<rect width="12.4925" height="12.4925" fill="white" transform="translate(0 0.594971)"/>
</clipPath>
</defs>
</svg>
