<svg width="20" height="21" viewBox="0 0 20 21" fill="none" xmlns="http://www.w3.org/2000/svg">
<path d="M11.6753 10.0062C11.6753 4.53121 11.6878 0.0412496 11.7041 0.0287497C11.7166 0.0124999 12.5453 0 13.539 0C14.9803 0 15.4265 0.0124999 15.7178 0.0624994C17.8803 0.434996 19.524 2.06248 19.934 4.21996C19.9915 4.52246 20.0002 5.2312 20.0002 9.9824C20.0002 15.0574 20.0065 15.6536 19.8465 16.2023C19.819 16.2973 19.7865 16.3898 19.7465 16.5048C19.4309 17.4262 18.8615 18.2396 18.1039 18.8516C17.3462 19.4635 16.4311 19.8489 15.464 19.9636C15.0678 20.0048 11.8528 20.0211 11.7416 19.9798C11.6791 19.9548 11.6753 19.0398 11.6753 10.0062ZM17.519 10.3424C17.4103 10.0297 17.2267 9.7484 16.9842 9.52309C16.7416 9.29777 16.4476 9.13531 16.1278 9.04991C15.629 8.92065 15.0997 8.98771 14.649 9.23727C14.1982 9.48683 13.8604 9.89985 13.7053 10.3912C13.6022 10.7732 13.5962 11.1749 13.6878 11.5599C13.8404 12.0588 14.1784 12.4803 14.6322 12.7377C15.0861 12.995 15.6213 13.0687 16.1278 12.9436C16.7653 12.7736 17.2628 12.3136 17.5153 11.6586C17.6528 11.3024 17.6565 10.7311 17.519 10.3424ZM4.63788 4.14621C4.37788 4.19621 3.98039 4.39496 3.76914 4.58121C3.33414 4.95745 3.11915 5.49245 3.15165 6.12119C3.1679 6.44869 3.18915 6.53619 3.32164 6.80119C3.51539 7.20243 3.80914 7.49618 4.21164 7.69493C4.48913 7.83243 4.55913 7.84868 4.92038 7.86118C5.24663 7.87367 5.36288 7.86118 5.58287 7.78618C6.48161 7.48368 7.02411 6.61119 6.87036 5.7162C6.69286 4.65121 5.68287 3.93871 4.63788 4.14621Z" fill="#3D3C3C"/>
<path d="M4.28137 0.0662123C3.30956 0.237604 2.4071 0.683544 1.68059 1.35136C0.954076 2.01917 0.433867 2.88096 0.181405 3.83493C0.00015715 4.53492 -0.0123427 4.94492 0.00640708 10.3749C0.018907 15.3623 0.0239069 15.4773 0.106406 15.8623C0.566402 17.9373 2.04139 19.4173 4.13637 19.906C4.41137 19.9685 4.75761 19.981 6.99884 19.9935C9.31882 20.0085 9.55882 20.0048 9.62007 19.9435C9.68257 19.881 9.68632 19.081 9.68632 10.0186C9.68632 3.30118 9.67382 0.136212 9.64507 0.0787121C9.60382 0.00371286 9.53257 -3.7109e-05 7.10759 0.00371286C5.13511 0.00871281 4.54261 0.0212127 4.28262 0.0662123H4.28137ZM8.03133 18.3973L6.34385 18.3773C4.79136 18.361 4.62511 18.3523 4.31512 18.2735C3.66987 18.1143 3.08306 17.7752 2.62283 17.2957C2.1626 16.8162 1.84785 16.216 1.71514 15.5648C1.62264 15.1461 1.62264 4.84117 1.71014 4.43117C1.83037 3.861 2.08887 3.32911 2.46289 2.88229C2.83692 2.43547 3.31501 2.0874 3.85512 1.8687C4.40262 1.6487 4.65511 1.6237 6.4276 1.6187L8.03008 1.61495V18.3973H8.03133Z" fill="#3D3C3C"/>
</svg>
